<?xml version="1.0" standalone="no"?><!DOCTYPE svg PUBLIC "-//W3C//DTD SVG 1.1//EN" "http://www.w3.org/Graphics/SVG/1.1/DTD/svg11.dtd"><svg t="1617520328652" class="icon" viewBox="0 0 1210 1024" version="1.1" xmlns="http://www.w3.org/2000/svg" p-id="11631" xmlns:xlink="http://www.w3.org/1999/xlink" width="236.328125" height="200"><defs><style type="text/css"></style></defs><path d="M285.91716 115.12426s284.023669 151.47929 340.828402 378.698225 18.934911 473.372781-18.934911 492.307693-568.047337-549.112426-568.047337-549.112427l56.804733-132.544378z" fill="#D2EAFF" p-id="11632"></path><path d="M1172.828402 323.597633l-284.023668-284.023669a134.816568 134.816568 0 0 0-189.349113 0L605.91716 135.573964l-94.674556-95.621301a136.710059 136.710059 0 0 0-189.349113 0l-284.023669 284.023668a134.627219 134.627219 0 0 0 0 189.349113L510.106509 984.615385a134.43787 134.43787 0 0 0 189.349112 0l70.627219-71.005918L888.047337 795.266272l284.023669-284.023668a134.43787 134.43787 0 0 0 1.325444-187.455622zM865.704142 725.207101l-94.674556-94.674557a33.704142 33.704142 0 0 0-47.147929 47.147929l94.674556 94.674557-71.005917 70.437869-94.674556-94.674556A33.704142 33.704142 0 0 0 605.91716 795.266272l94.674556 94.674556-47.337278 47.905326a67.597633 67.597633 0 0 1-94.674556 0L87.100592 466.366864a67.597633 67.597633 0 0 1 0-94.674556l282.887574-284.023669a67.408284 67.408284 0 0 1 94.674556 0l94.674556 94.674556L416.568047 323.597633a33.325444 33.325444 0 0 0 0 46.95858l23.47929 23.668639a168.331361 168.331361 0 0 0 235.739645 0l47.147929-47.147929L984.615385 607.053254z m259.976331-259.976332l-94.674556 94.674556-284.023668-284.023668a33.514793 33.514793 0 0 0-47.147929 0l-71.005918 70.627219a100.923077 100.923077 0 0 1-141.822485 0l141.822485-141.822485 118.721894-117.585799a67.408284 67.408284 0 0 1 94.674556 0l284.023669 284.023668a67.029586 67.029586 0 0 1 0 94.674557z" fill="#2E85ED" p-id="11633"></path></svg>