<?xml version="1.0" standalone="no"?><!DOCTYPE svg PUBLIC "-//W3C//DTD SVG 1.1//EN" "http://www.w3.org/Graphics/SVG/1.1/DTD/svg11.dtd"><svg t="1617460091331" class="icon" viewBox="0 0 1024 1024" version="1.1" xmlns="http://www.w3.org/2000/svg" p-id="4690" xmlns:xlink="http://www.w3.org/1999/xlink" width="200" height="200"><defs><style type="text/css"></style></defs><path d="M0 0h1024v1024H0z" fill="#FFFFFF" fill-opacity="0" p-id="4691"></path><path d="M0 0h1024v1024H0z" fill="#FFFFFF" fill-opacity="0" p-id="4692"></path><path d="M512 512m-455.111111 0a455.111111 455.111111 0 1 0 910.222222 0 455.111111 455.111111 0 1 0-910.222222 0Z" fill="#48A8FF" p-id="4693"></path><path d="M511.914667 199.111111C567.552 199.111111 739.555556 488.448 739.555556 618.24 739.555556 748.060444 637.639111 853.333333 511.914667 853.333333c-115.740444 0-211.313778-89.201778-225.763556-204.657777l57.571556-3.356445c7.139556 0 14.279111-5.546667 16.014222-13.909333l12.458667-53.731556 40.049777 100.977778a17.578667 17.578667 0 0 0 16.014223 11.121778l2.360888-0.170667c6.314667-0.853333 12.373333-5.176889 16.327112-10.951111l44.458666-115.768889h25.799111c8.874667 20.366222 28.472889 35.185778 51.598223 35.185778 31.146667 0 56.917333-26.88 56.917333-59.306667 0-32.398222-25.770667-59.278222-56.917333-59.278222-26.680889 0-49.777778 20.394667-55.182223 46.364444h-34.702222a17.436444 17.436444 0 0 0-16.896 12.003556l-32.910222 85.219556-44.458667-112.071112a16.668444 16.668444 0 0 0-17.749333-11.121777l-2.389333 0.199111c-6.855111 1.109333-12.032 7.025778-13.653334 13.681778l-22.272 95.431111-44.174222 2.275555C290.104889 478.72 458.154667 199.111111 511.914667 199.111111z" fill="#FFFFFF" p-id="4694"></path></svg>