<?xml version="1.0" standalone="no"?><!DOCTYPE svg PUBLIC "-//W3C//DTD SVG 1.1//EN" "http://www.w3.org/Graphics/SVG/1.1/DTD/svg11.dtd"><svg t="1617459711548" class="icon" viewBox="0 0 1024 1024" version="1.1" xmlns="http://www.w3.org/2000/svg" p-id="2821" xmlns:xlink="http://www.w3.org/1999/xlink" width="200" height="200"><defs><style type="text/css"></style></defs><path d="M310.857143 914.285714h-182.857143a18.285714 18.285714 0 0 1-18.285714-18.285714v-768a18.285714 18.285714 0 0 1 18.285714-18.285714h182.857143a18.285714 18.285714 0 0 1 18.285714 18.285714v768a18.285714 18.285714 0 0 1-18.285714 18.285714zM146.285714 877.714286h146.285715V146.285714H146.285714zM896 329.142857h-475.428571a18.285714 18.285714 0 0 1-18.285715-18.285714v-182.857143a18.285714 18.285714 0 0 1 18.285715-18.285714h475.428571a18.285714 18.285714 0 0 1 18.285714 18.285714v182.857143a18.285714 18.285714 0 0 1-18.285714 18.285714zM438.857143 292.571429h438.857143V146.285714H438.857143z" p-id="2822"></path><path d="M896 621.714286h-475.428571a18.285714 18.285714 0 0 1-18.285715-18.285715v-182.857142a18.285714 18.285714 0 0 1 18.285715-18.285715h475.428571a18.285714 18.285714 0 0 1 18.285714 18.285715v182.857142a18.285714 18.285714 0 0 1-18.285714 18.285715zM438.857143 585.142857h438.857143v-146.285714H438.857143zM603.428571 914.285714h-182.857142a18.285714 18.285714 0 0 1-18.285715-18.285714v-182.857143a18.285714 18.285714 0 0 1 18.285715-18.285714h182.857142a18.285714 18.285714 0 0 1 18.285715 18.285714v182.857143a18.285714 18.285714 0 0 1-18.285715 18.285714zM438.857143 877.714286h146.285714v-146.285715h-146.285714z" p-id="2823"></path><path d="M836.022857 731.428571h-93.988571a18.285714 18.285714 0 0 1 0-36.571428h93.988571a18.285714 18.285714 0 0 1 0 36.571428z" p-id="2824"></path><path d="M694.857143 872.594286a17.188571 17.188571 0 0 1-12.8-5.485715 18.285714 18.285714 0 0 1 0-25.965714l140.8-140.8a18.285714 18.285714 0 0 1 25.965714 0 17.554286 17.554286 0 0 1 0 25.6l-141.165714 141.165714a17.188571 17.188571 0 0 1-12.8 5.485715zM830.537143 914.285714h-93.988572a18.285714 18.285714 0 0 1 0-36.571428h93.988572a18.285714 18.285714 0 0 1 0 36.571428z" p-id="2825"></path><path d="M736.548571 914.285714a18.285714 18.285714 0 0 1-12.8-31.085714l141.165715-141.165714a17.554286 17.554286 0 0 1 25.6 0 18.285714 18.285714 0 0 1 0 25.965714l-140.8 140.8a18.651429 18.651429 0 0 1-13.165715 5.485714z" p-id="2826"></path></svg>